<svg width="75" height="75" viewBox="0 0 75 75" stroke="currentColor" stroke-width="2" fill="none" xmlns="http://www.w3.org/2000/svg">
<g transform="translate(0.000000,512.000000) scale(0.100000,-0.100000)"
fill="#000000" stroke="none">
<path d="M1307 5017 c-209 -208 -369 -442 -437 -637 -45 -132 -50 -178 -50
-505 0 -245 -4 -329 -17 -400 -21 -114 -23 -435 -5 -550 56 -341 190 -635 406
-893 75 -89 248 -252 268 -252 5 0 8 132 6 328 -3 369 -5 361 75 426 l39 31
216 5 c226 5 240 8 290 54 36 32 54 73 62 144 10 77 43 125 111 160 43 22 50
23 309 20 262 -3 265 -3 301 -27 51 -35 78 -79 89 -146 14 -89 28 -121 65
-154 50 -44 90 -51 292 -51 193 0 220 -5 267 -48 63 -59 66 -74 66 -425 l0
-319 42 34 c24 18 81 71 128 118 288 287 466 665 511 1085 12 117 6 320 -12
415 -6 30 -14 228 -18 440 l-7 385 -28 85 c-74 223 -223 448 -447 673 -133
133 -144 136 -237 51 -57 -51 -178 -182 -228 -246 l-21 -27 -90 39 c-271 117
-640 167 -923 125 -111 -16 -285 -55 -332 -75 -13 -5 -65 -26 -117 -46 l-94
-37 -45 54 c-25 30 -93 102 -152 162 -143 144 -142 144 -283 4z m637 -1898
c32 -15 46 -56 46 -131 0 -97 -37 -141 -105 -124 -35 9 -55 55 -55 124 0 73
14 116 43 130 29 14 41 14 71 1z m1309 -1 c39 -20 46 -40 47 -126 0 -75 -2
-85 -25 -107 -30 -30 -77 -33 -104 -6 -25 25 -35 78 -28 149 5 45 12 62 32 80
29 25 47 27 78 10z"/>
<path d="M2362 2800 c-29 -12 -46 -51 -37 -87 11 -45 95 -119 156 -137 66 -20
102 -20 170 0 69 20 159 107 159 153 0 35 -26 68 -61 76 -23 6 -36 -2 -84 -45
-56 -51 -59 -52 -106 -48 -41 4 -57 12 -98 52 -52 48 -61 51 -99 36z"/>
<path d="M1805 1487 c-531 -279 -861 -793 -899 -1399 l-4 -78 303 0 303 0 4
212 c3 201 4 215 25 244 44 61 60 64 383 64 l291 0 11 30 c19 57 38 60 343 60
304 0 321 -3 345 -60 l12 -30 290 0 c321 0 337 -3 381 -64 21 -29 22 -42 25
-243 l3 -213 303 0 302 0 -3 67 c-27 602 -367 1132 -907 1413 l-78 41 -70 -25
c-335 -124 -742 -138 -1093 -36 -58 16 -122 37 -142 45 -19 8 -38 15 -42 15
-3 0 -42 -20 -86 -43z"/>
</g>
</svg>